<?xml version="1.0" standalone="no"?>
<!DOCTYPE svg PUBLIC "-//W3C//DTD SVG 20010904//EN"
 "http://www.w3.org/TR/2001/REC-SVG-20010904/DTD/svg10.dtd">
<svg version="1.0" xmlns="http://www.w3.org/2000/svg"
 width="633.000000pt" height="370.000000pt" viewBox="0 0 633.000000 370.000000"
 preserveAspectRatio="xMidYMid meet">

<g transform="translate(0.000000,370.000000) scale(0.100000,-0.100000)"
fill="#000000" stroke="none">
<path d="M2161 2889 c-24 -24 -31 -39 -31 -71 0 -37 7 -47 80 -123 l80 -82
-20 -46 c-12 -26 -25 -84 -30 -129 -13 -108 -12 -1021 0 -1117 27 -203 165
-338 371 -361 108 -13 1008 -13 1117 0 45 5 103 18 129 30 l46 20 82 -80 c76
-73 86 -80 123 -80 74 0 127 84 93 148 -5 10 -441 446 -969 970 -953 945 -960
952 -1000 952 -32 0 -47 -7 -71 -31z m629 -780 c0 -3 -79 -86 -175 -185 l-174
-179 -1 321 c0 177 3 336 6 354 l7 32 168 -168 c93 -93 169 -171 169 -175z
m601 -592 c307 -301 346 -343 326 -349 -38 -11 -1049 -9 -1108 2 -99 19 -154
85 -164 200 l-6 65 127 135 c69 74 181 192 247 261 l122 127 53 -49 c30 -27
211 -203 403 -392z"/>
<path d="M2650 2812 c0 -4 44 -51 98 -105 l97 -97 416 0 c241 0 439 -4 470
-10 63 -12 114 -49 143 -106 20 -37 21 -58 24 -346 2 -170 0 -308 -5 -308 -4
0 -43 32 -87 70 -52 46 -90 72 -113 76 -50 9 -128 0 -157 -20 l-25 -16 290
-288 c160 -158 295 -288 300 -290 12 -5 12 959 -1 1067 -24 211 -160 347 -371
371 -99 12 -1079 14 -1079 2z"/>
</g>
</svg>
