<?xml version="1.0" standalone="no"?>
<!DOCTYPE svg PUBLIC "-//W3C//DTD SVG 20010904//EN"
 "http://www.w3.org/TR/2001/REC-SVG-20010904/DTD/svg10.dtd">
<svg version="1.0" xmlns="http://www.w3.org/2000/svg"
 width="480.000000pt" height="482.000000pt" viewBox="0 0 480.000000 482.000000"
 preserveAspectRatio="xMidYMid meet">

<g transform="translate(0.000000,482.000000) scale(0.100000,-0.100000)"
fill="#000000" stroke="none">
<path d="M2285 3654 c-261 -25 -523 -183 -669 -403 -67 -102 -80 -128 -108
-211 -41 -123 -48 -164 -48 -295 0 -197 34 -308 153 -500 6 -11 14 -22 17 -25
3 -3 18 -23 35 -45 16 -22 47 -57 70 -79 41 -39 207 -151 258 -174 60 -27 74
-32 117 -46 25 -7 65 -17 90 -22 63 -11 306 -9 360 3 111 25 256 90 315 141
14 12 28 22 33 22 4 0 26 17 49 38 22 20 49 44 60 53 36 32 123 150 123 168 0
6 4 11 9 11 5 0 11 8 14 18 3 9 16 35 28 57 35 64 39 74 39 93 0 10 4 22 8 28
5 5 17 53 27 107 19 106 17 264 -5 342 -7 22 -17 58 -23 80 -28 101 -134 279
-220 367 -81 84 -249 190 -354 226 -114 38 -266 57 -378 46z"/>
<path d="M2180 1555 c-193 -18 -266 -29 -385 -60 -218 -57 -259 -72 -430 -156
-152 -75 -174 -88 -324 -204 -41 -32 -141 -137 -159 -167 -9 -16 -20 -28 -24
-28 -4 0 -8 -4 -8 -10 0 -5 -15 -33 -33 -62 -50 -80 -79 -153 -79 -193 0 -27
45 -72 165 -164 113 -85 302 -203 397 -248 265 -124 348 -151 675 -218 17 -3
72 -10 124 -14 58 -4 96 -12 99 -19 3 -9 51 -12 169 -12 133 0 167 3 179 15
11 10 36 15 77 15 34 0 127 14 207 31 80 17 156 33 170 35 14 3 34 9 45 14 11
4 58 20 105 35 77 25 163 61 244 101 16 8 33 14 37 14 5 0 43 21 86 46 43 26
87 52 98 58 40 22 182 120 245 170 103 80 140 117 140 142 0 26 -45 137 -72
176 -10 14 -18 29 -18 33 0 16 -102 144 -157 195 -146 140 -348 261 -553 335
-41 15 -84 31 -95 35 -232 86 -635 132 -925 105z"/>
</g>
</svg>
